<?xml version="1.0" standalone="no"?>
<!DOCTYPE svg PUBLIC "-//W3C//DTD SVG 20010904//EN"
 "http://www.w3.org/TR/2001/REC-SVG-20010904/DTD/svg10.dtd">
<svg version="1.0" xmlns="http://www.w3.org/2000/svg"
 width="1920.000000pt" height="1080.000000pt" viewBox="0 0 1920.000000 1080.000000"
 preserveAspectRatio="xMidYMid meet">

<g transform="translate(0.000000,1080.000000) scale(0.100000,-0.100000)"
fill="#000000" stroke="none">
<path d="M10375 7884 c-126 -7 -502 -27 -834 -44 -333 -17 -608 -33 -612 -36
-4 -2 -47 -52 -95 -110 l-87 -106 -10 -773 -11 -773 103 -116 c56 -64 103
-116 104 -117 1 0 322 -38 712 -83 l710 -82 -1 -89 c-1 -50 -5 -181 -9 -292
l-7 -203 -197 0 c-108 0 -266 -3 -352 -7 l-156 -6 -32 205 -33 205 -391 6
c-216 2 -395 2 -399 -2 -4 -3 -26 -193 -48 -421 -22 -228 -41 -427 -43 -443
-3 -19 24 -84 85 -210 l88 -182 418 3 c229 1 705 5 1058 9 l640 6 147 130 147
130 0 52 c0 28 7 336 15 684 l16 632 -112 240 c-61 132 -115 241 -119 244 -6
4 -715 69 -1200 111 -107 9 -197 18 -199 20 -3 3 6 121 19 265 23 244 25 260
45 264 40 8 586 47 591 42 3 -3 30 -85 61 -184 30 -98 56 -180 58 -181 2 -2
148 4 326 13 l322 17 83 72 83 71 0 50 c0 76 -36 826 -40 829 -5 5 -608 176
-611 175 -2 -1 -106 -8 -233 -15z"/>
<path d="M11607 7869 c-8 -19 -39 -88 -69 -154 l-55 -120 11 -1612 c7 -1048
15 -1615 21 -1621 6 -5 76 -44 156 -86 l146 -76 284 0 c156 0 625 3 1042 7
l757 6 86 165 86 165 -12 371 c-6 204 -12 372 -13 372 -1 1 -193 14 -427 31
-380 26 -426 27 -432 13 -4 -8 -23 -120 -43 -249 -19 -129 -36 -235 -38 -236
-6 -5 -598 43 -604 48 -6 7 -42 1731 -43 2091 l0 198 73 -6 c39 -3 182 -11
317 -17 135 -6 246 -12 248 -14 2 -1 19 -108 38 -236 19 -129 37 -244 39 -256
l5 -23 435 0 c239 0 435 1 436 3 0 1 16 225 35 497 l34 495 -39 35 c-22 19
-85 75 -141 124 l-102 90 -656 7 c-362 4 -860 10 -1109 14 l-452 7 -14 -33z"/>
<path d="M5905 7448 c4 -244 9 -445 11 -448 3 -2 174 -12 380 -21 207 -10 377
-19 379 -21 2 -2 -1 -623 -7 -1381 -7 -757 -9 -1379 -6 -1382 6 -6 950 83 957
91 3 3 28 604 56 1337 l50 1332 40 2 c22 2 186 10 364 18 178 8 325 16 327 18
3 2 44 828 44 879 0 17 -60 18 -1301 18 l-1302 0 8 -442z"/>
<path d="M9452 3288 c-32 -32 5 -92 49 -81 29 8 44 45 30 72 -13 23 -59 29
-79 9z"/>
<path d="M7637 3273 c-4 -3 -7 -123 -7 -265 l0 -258 45 0 45 0 0 265 0 265
-38 0 c-21 0 -42 -3 -45 -7z"/>
<path d="M9050 3015 l0 -265 40 0 40 0 0 265 0 265 -40 0 -40 0 0 -265z"/>
<path d="M12280 3016 l0 -266 45 0 45 0 -2 263 -3 262 -42 3 -43 3 0 -265z"/>
<path d="M8765 3241 c-107 -48 -110 -172 -6 -241 l46 -31 3 36 c2 27 -3 43
-22 66 -33 39 -33 63 0 95 19 20 24 34 22 60 l-3 33 -40 -18z"/>
<path d="M8840 3227 c0 -30 4 -34 40 -44 39 -10 41 -9 55 18 8 15 15 30 15 32
0 5 -82 27 -99 27 -6 0 -11 -15 -11 -33z"/>
<path d="M11277 3245 c-85 -30 -128 -101 -135 -221 -7 -125 31 -215 108 -254
60 -31 80 -27 80 15 0 25 -4 35 -16 35 -32 0 -71 54 -84 114 -23 110 8 213 73
244 22 10 27 20 27 48 0 38 0 38 -53 19z"/>
<path d="M11360 3227 c0 -27 6 -36 35 -51 32 -18 36 -18 60 -2 15 10 24 23 22
29 -5 15 -53 43 -89 51 -26 6 -28 4 -28 -27z"/>
<path d="M7160 3220 l0 -30 75 0 75 0 0 -220 0 -220 40 0 40 0 0 220 0 220 75
0 75 0 0 30 0 30 -190 0 -190 0 0 -30z"/>
<path d="M7780 3127 c-27 -9 -35 -17 -35 -37 0 -22 4 -25 32 -22 80 8 93 -20
93 -194 l0 -124 40 0 40 0 0 148 c-1 157 -5 175 -52 211 -34 27 -75 34 -118
18z"/>
<path d="M8142 3119 c-136 -68 -136 -284 0 -355 41 -21 124 -18 164 7 37 23
40 30 22 58 -11 18 -14 18 -42 4 -16 -8 -48 -15 -70 -15 -33 1 -47 7 -68 32
-24 26 -28 39 -28 88 0 63 24 116 59 127 16 5 21 15 21 41 0 19 -3 34 -7 34
-5 0 -27 -10 -51 -21z"/>
<path d="M9790 3127 c-27 -9 -35 -17 -35 -37 0 -22 4 -25 32 -22 80 8 93 -20
93 -194 l0 -124 40 0 40 0 0 148 c-1 157 -5 175 -52 211 -34 27 -75 34 -118
18z"/>
<path d="M10213 3125 c-24 -10 -33 -20 -33 -38 0 -23 3 -24 43 -20 70 8 79 -9
85 -177 l5 -140 39 0 39 0 -3 154 c-3 149 -4 155 -28 181 -29 31 -72 55 -97
55 -10 -1 -33 -7 -50 -15z"/>
<path d="M12145 3131 c-45 -11 -74 -32 -98 -71 -33 -53 -32 -178 3 -238 30
-52 63 -72 124 -72 64 0 76 7 76 46 0 32 -1 33 -25 22 -54 -24 -115 40 -115
120 0 92 49 148 111 125 28 -11 29 -11 29 22 0 19 -3 36 -7 38 -18 11 -70 15
-98 8z"/>
<path d="M12585 3126 c-40 -17 -90 -75 -105 -122 -27 -81 12 -191 83 -234 44
-27 131 -27 175 0 34 21 38 30 22 61 -10 18 -12 18 -42 3 -63 -33 -138 -12
-159 44 -6 15 -9 51 -6 81 3 47 9 59 40 88 27 24 37 42 37 63 0 34 -3 35 -45
16z"/>
<path d="M12660 3105 c0 -25 5 -35 21 -40 21 -7 59 -60 59 -82 0 -9 -23 -13
-80 -13 l-80 0 0 -30 0 -30 120 0 120 0 0 38 c-1 75 -62 163 -128 181 -31 9
-32 9 -32 -24z"/>
<path d="M13105 3133 c-67 -14 -65 -12 -65 -48 l0 -35 56 0 55 0 -3 42 c-3 43
-9 48 -43 41z"/>
<path d="M8220 3102 c0 -20 7 -30 29 -40 28 -12 64 -68 55 -84 -3 -4 -39 -8
-80 -8 l-74 0 0 -30 0 -30 115 0 c133 0 134 1 115 80 -18 77 -82 140 -140 140
-15 0 -20 -6 -20 -28z"/>
<path d="M9206 3060 c-38 -58 -46 -78 -46 -116 0 -42 7 -56 55 -121 54 -72 56
-73 100 -73 25 0 45 2 45 4 0 2 -30 42 -66 88 -36 45 -68 88 -71 94 -2 7 23
50 56 97 34 47 61 88 61 91 0 3 -20 6 -44 6 -42 0 -44 -1 -90 -70z"/>
<path d="M9450 2940 l0 -190 40 0 40 0 0 190 0 190 -40 0 -40 0 0 -190z"/>
<path d="M9640 2940 l0 -190 45 0 45 0 0 174 c0 96 -3 181 -6 190 -4 11 -19
16 -45 16 l-39 0 0 -190z"/>
<path d="M10070 2940 l0 -190 45 0 45 0 0 168 c0 209 -1 212 -51 212 l-39 0 0
-190z"/>
<path d="M10504 3113 c47 -126 132 -321 137 -315 4 4 14 23 22 42 14 34 12 40
-33 160 l-48 125 -42 3 c-38 3 -42 1 -36 -15z"/>
<path d="M10786 3122 c-3 -5 -36 -97 -75 -204 -38 -108 -79 -214 -91 -238 -20
-39 -24 -42 -55 -38 -29 3 -35 0 -40 -21 -8 -30 7 -41 55 -41 43 0 71 18 99
64 17 26 191 468 191 482 0 8 -79 4 -84 -4z"/>
<path d="M11681 3113 c-81 -40 -117 -173 -71 -267 24 -51 62 -83 109 -92 29
-6 31 -5 31 24 0 21 -7 35 -20 42 -30 16 -50 63 -50 120 0 57 20 104 50 120
13 7 20 21 20 40 0 35 -17 38 -69 13z"/>
<path d="M11780 3100 c0 -19 7 -33 20 -40 66 -35 65 -214 -1 -235 -25 -8 -28
-75 -2 -75 33 0 100 49 119 87 26 52 26 155 0 206 -21 43 -79 87 -113 87 -19
0 -23 -5 -23 -30z"/>
<path d="M12930 2940 l0 -190 40 0 40 0 0 190 0 190 -40 0 -40 0 0 -190z"/>
<path d="M8840 2991 c0 -30 5 -42 25 -55 19 -12 25 -25 25 -51 0 -24 -7 -39
-25 -53 -17 -14 -25 -30 -25 -51 0 -36 12 -39 58 -11 97 60 94 188 -7 240 -22
11 -43 20 -46 20 -3 0 -5 -17 -5 -39z"/>
<path d="M11393 2831 c-27 -13 -33 -22 -33 -48 0 -39 21 -43 76 -17 46 22 50
31 23 60 -25 27 -23 27 -66 5z"/>
<path d="M8686 2818 c-3 -13 -6 -27 -6 -31 0 -12 66 -37 100 -37 26 0 30 3 30
29 0 25 -5 30 -44 40 -24 6 -50 13 -58 16 -10 4 -17 -2 -22 -17z"/>
</g>
</svg>
